<svg id="Capa_1" data-name="Capa 1" xmlns="http://www.w3.org/2000/svg" viewBox="0 0 486.39 486.39"><defs><style>.cls-1{fill:#c0bbb7;}</style></defs><title>new-linkedin</title><path class="cls-1" d="M243.2,0C108.89,0,0,108.89,0,243.2s108.89,243.2,243.2,243.2,243.2-108.89,243.2-243.2S377.5,0,243.2,0ZM182.4,361H121.6V148.2h60.8ZM153.88,135.16a28.51,28.51,0,1,1,28.51-28.51A28.49,28.49,0,0,1,153.88,135.16ZM395.19,361h-60.8V229.43c0-15.41-4.41-26.2-23.35-26.2-31.4,0-37.45,26.2-37.45,26.2V361H212.8V148.2h60.8v20.34a101.69,101.69,0,0,1,60.8-20.31c19.7,0,60.8,11.79,60.8,83.05V361Z"/></svg>