<svg id="Слой_1" data-name="Слой 1" xmlns="http://www.w3.org/2000/svg" viewBox="0 0 27 27"><defs><style>.cls-1{fill:#c0bbb7;}</style></defs><title>twee</title><g id="Dark_Blue" data-name="Dark Blue"><circle class="cls-1" cx="13.5" cy="13.5" r="13.5"/></g><g id="Logo_FIXED" data-name="Logo FIXED"><path d="M11,20.62a9.2,9.2,0,0,0,9.26-9.26c0-.14,0-.28,0-.42a6.67,6.67,0,0,0,1.63-1.69A6.61,6.61,0,0,1,20,9.77,3.25,3.25,0,0,0,21.47,8a6.59,6.59,0,0,1-2.07.79A3.26,3.26,0,0,0,13.78,11a3,3,0,0,0,.09.74,9.23,9.23,0,0,1-6.71-3.4,3.25,3.25,0,0,0,1,4.34,3.2,3.2,0,0,1-1.47-.41v0a3.26,3.26,0,0,0,2.61,3.19,3.24,3.24,0,0,1-.86.11,3.11,3.11,0,0,1-.61-.06,3.25,3.25,0,0,0,3,2.26,6.54,6.54,0,0,1-4,1.39,5.92,5.92,0,0,1-.78,0,9.07,9.07,0,0,0,5,1.47"/></g></svg>