<svg xmlns="http://www.w3.org/2000/svg" viewBox="0 0 796.2 166.92">
  <defs>
    <style>
      
      .cls-1{fill:#e8af63;}
    
    </style>
  </defs>
  <title>
    
    big-city
  
  </title>
  <g id="Слой_2" data-name="Слой 2">
    <g id="Layer_1" data-name="Layer 1">
      <path class="cls-1" d="M81.6 88.56V77.67l-18.48-6-18.48 6V88.56H28.4v78.08h70V88.56ZM63.12 79.9a4.62 4.62 0 1 1-4.62 4.62 4.62 4.62 0 0 1 4.62-4.62h0Zm14.5 86.74H49.55v-19H77.62Zm-34.08-50.5H38.19V102.89h5.35ZM66.26 102.9v13.24H60.91V102.89Zm-16.71 0H54.9v13.24H49.55Zm28.07 13.24H72.27V102.89h5.35Zm11.36 0H83.63V102.89H89Zm-45.44 22H38.19V124.93h5.35ZM66.26 124.9v13.24H60.91V124.93Zm-16.71 0H54.9v13.24H49.55Zm28.07 13.24H72.27V124.93h5.35Zm11.36 0H83.63V124.93H89Z"/>
      <rect class="cls-1" x="464.78" y="127.82" width="118.93" height="7.87"/>
      <path class="cls-1" d="M583.7 123H563.88v-4.7H546v-7.77a112.32 112.32 0 0 0-43.44 0v7.77H484.6V123H464.78v3.83H583.71Z"/>
      <rect class="cls-1" x="464.78" y="136.92" width="118.93" height="2.17"/>
      <rect class="cls-1" x="467.68" y="143.81" width="15.39" height="22.65"/>
      <rect class="cls-1" x="505.54" y="143.81" width="4.31" height="22.65"/>
      <rect class="cls-1" x="486.86" y="143.81" width="14.88" height="22.65"/>
      <rect class="cls-1" x="452.2" y="127.82" width="11.27" height="38.64"/>
      <rect class="cls-1" x="382.49" y="120.64" width="8.82" height="5.45"/>
      <rect class="cls-1" x="587.45" y="92.37" width="8.27" height="41.14"/>
      <rect class="cls-1" x="614.77" y="143.53" width="8.35" height="22.93"/>
      <rect class="cls-1" x="605.25" y="143.53" width="8.35" height="22.93"/>
      <rect class="cls-1" x="605.25" y="135.03" width="18.01" height="7.19"/>
      <rect class="cls-1" x="388.81" y="126.74" width="2.51" height="39.72"/>
      <polygon class="cls-1" points="637.2 166.46 637.2 122.53 624.35 122.53 603.88 122.53 599.75 122.53 599.75 136.92 585.16 136.92 585.16 166.46 603.88 166.46 603.88 136.92 603.88 133.63 624.35 133.63 624.35 166.46 637.2 166.46"/>
      <rect class="cls-1" x="538.36" y="143.81" width="4.31" height="22.65"/>
      <rect class="cls-1" x="565.44" y="143.81" width="15.7" height="22.65"/>
      <rect class="cls-1" x="546.98" y="143.81" width="14.77" height="22.65"/>
      <polygon class="cls-1" points="534.21 166.46 534.21 143.81 514.02 143.81 514.02 166.46 516.18 166.46 516.18 145.33 532.06 145.33 532.06 166.46 534.21 166.46"/>
      <rect class="cls-1" x="599.53" y="112.88" width="31.25" height="8.74"/>
      <polygon class="cls-1" points="583.71 166.46 583.71 142.57 583.71 141.49 583.71 140.4 464.78 140.4 464.78 141.49 464.78 142.57 464.78 166.46 466.36 166.46 466.41 142.57 484.06 142.57 484.06 166.46 485.69 166.46 485.69 142.57 502.79 142.57 502.79 166.46 504.42 166.46 504.42 142.57 511.21 142.57 511.21 166.46 512.84 166.46 512.84 142.57 535.65 142.57 535.65 166.46 537.28 166.46 537.28 142.57 544.06 142.57 544.06 166.46 545.69 166.46 545.69 142.57 562.8 142.57 562.8 166.46 564.43 166.46 564.43 142.57 582.08 142.57 582.08 166.46 583.71 166.46"/>
      <path class="cls-1" d="M585.15 90.08v45.61h13.06V90.08Zm11.22 44.08h-9.58V91.72h9.58Z"/>
      <rect class="cls-1" x="517.23" y="146.48" width="13.64" height="19.98"/>
      <rect class="cls-1" x="385.65" y="126.74" width="2.51" height="39.72"/>
      <rect class="cls-1" x="353.15" y="120.64" width="8.82" height="5.45"/>
      <rect class="cls-1" x="353.15" y="126.74" width="2.51" height="39.72"/>
      <rect class="cls-1" x="356.31" y="126.74" width="2.51" height="39.72"/>
      <rect class="cls-1" x="348.14" y="110.64" width="48.18" height="2.87"/>
      <rect class="cls-1" x="351.84" y="114.22" width="40.78" height="2.73"/>
      <rect class="cls-1" x="353.15" y="117.6" width="38.17" height="2.39"/>
      <path class="cls-1" d="M372.23 94a16.63 16.63 0 0 0-16.63 16.63h33.26A16.63 16.63 0 0 0 372.23 94Z"/>
      <rect class="cls-1" x="360.05" y="126.8" width="24.54" height="39.66"/>
      <rect class="cls-1" x="363.53" y="120.64" width="17.24" height="12.55"/>
      <polygon class="cls-1" points="65.05 151.96 65.05 166.63 64.11 166.63 64.11 151.96 53.76 151.96 53.76 166.63 75.41 166.63 75.41 151.96 65.05 151.96"/>
      <rect class="cls-1" x="100.07" y="108.75" width="17.83" height="57.8"/>
      <rect class="cls-1" x="319.83" y="136.96" width="29.98" height="29.81"/>
      <rect class="cls-1" x="215.99" y="7.82" width="11.61" height="158.54"/>
      <rect class="cls-1" x="228.43" y="7.82" width="11.13" height="158.54"/>
      <rect class="cls-1" x="191.06" y="7.82" width="11.61" height="158.54"/>
      <rect class="cls-1" x="179.11" y="7.82" width="11.13" height="158.54"/>
      <polygon class="cls-1" points="212.56 7.82 203.5 7.82 203.5 166.36 212.56 166.36 215.17 166.36 215.17 7.82 212.56 7.82"/>
      <polygon class="cls-1" points="171.49 0 171.49 166.36 178.29 166.36 178.29 7 240.38 7 240.38 166.36 247.18 166.36 247.18 0 171.49 0"/>
      <path class="cls-1" d="M120.12 77.37v88.79h49.09V77.37Zm44.78 80.35H124.42v-3.43h40.5Zm0-7.17H124.42v-3.43h40.5Zm0-7.17H124.42V140h40.5Zm0-7.17H124.42v-3.43h40.5Zm0-7.17H124.42v-3.43h40.5Zm0-7.17H124.42v-3.43h40.5Zm0-7.17H124.42v-3.44h40.5Zm0-7.17H124.42V104.1h40.5Zm0-7.17H124.42V96.93h40.5Zm0-7.17H124.42V89.76h40.5Zm0-7.17H124.42V82.59h40.5Z"/>
      <rect class="cls-1" x="689.3" y="64.96" width="15.97" height="101.96"/>
      <path class="cls-1" d="M747 70.16v96.42H764.7v-5.51a6.92 6.92 0 0 1 13.84 0v5.51H796.2V70.16Zm13.51 77.55h-6.64v-9.18h6.64Zm0-12.31h-6.64v-9.18h6.64Zm0-12.31h-6.64v-9.18h6.64Zm0-12.31h-6.64V101.6h6.64Zm0-12.31h-6.64V89.29h6.64Zm0-12.31h-6.64V77h6.64Zm9.76 61.57h-6.64v-9.18h6.64Zm0-12.31h-6.64v-9.18h6.64Zm0-12.31h-6.64v-9.18h6.64Zm0-12.31h-6.64v-9.18h6.64Zm0-12.31h-6.64v-9.2h6.64Zm0-12.31h-6.64V77h6.64Zm9.93 61.57H773.6v-9.18h6.64Zm0-12.31H773.6v-9.18h6.64Zm0-12.31H773.6V114h6.64Zm0-12.31H773.6v-9.18h6.64Zm0-12.31H773.6V89.29h6.64Zm0-12.31H773.6V77h6.64ZM790 147.78h-6.64V138.6H790Zm0-12.31h-6.64v-9.18H790Zm0-12.31h-6.64V114H790Zm0-12.31h-6.64v-9.18H790Zm0-12.31h-6.64V89.29H790Zm0-12.31h-6.64V77H790Z"/>
      <rect class="cls-1" y="155.18" width="27.24" height="10.98"/>
      <rect class="cls-1" y="143.17" width="27.24" height="10.98"/>
      <rect class="cls-1" y="131.16" width="27.24" height="10.98"/>
      <rect class="cls-1" y="119.15" width="27.24" height="10.98"/>
      <rect class="cls-1" y="107.14" width="27.24" height="10.98"/>
      <rect class="cls-1" y="95.14" width="27.24" height="10.98"/>
      <path class="cls-1" d="M301.29 71.4V61.08l-17.84-5.66-17.84 5.66V71.41H249.94v95.06h67.58V71.4ZM264.55 135h-5.16V80.75h5.16Zm18.9-71.78a4.42 4.42 0 0 1 4.46 4.38h0A4.42 4.42 0 0 1 283.45 72h0A4.42 4.42 0 0 1 279 67.58h0a4.42 4.42 0 0 1 4.44-4.4h0Zm3 17.56V135h-5.16V80.75Zm-16.12 0h5.16V135h-5.16Zm27.09 85.72H270.33v-18h27.09Zm0-31.5h-5.16V80.75h5.16Zm11 0h-5.16V80.75h5.16Z"/>
      <polygon class="cls-1" points="284.35 152.56 284.35 166.47 283.45 166.47 283.45 152.56 273.46 152.56 273.46 166.47 294.35 166.47 294.35 152.56 284.35 152.56"/>
      <path class="cls-1" d="M708.29 8.47v157.8h37.33V8.47ZM737.88 14h2.26V143.64h-2.26Zm-4.79 0h2.26V143.64h-2.26Zm-4.79 0h2.26V143.64H728.3Zm-4.79 0h2.26V143.64h-2.26Zm-4.79 0H721V143.64h-2.26Zm-4.79 0h2.26V143.64h-2.26Zm12.83 152.27h-3v-6.71a3.22 3.22 0 0 1 3-3.18Zm3.54 0h-3v-9.9a3.22 3.22 0 0 1 3 3.18Zm9.86 0h-1V152.5H714.93v13.75h-1V151.54h26.23Z"/>
      <path class="cls-1" d="M672.9 88.39a9.88 9.88 0 0 0-19.68 0h-13V166.6h46.06V88.39Zm-19.62 70.12H644v-5.4h9.23Zm0-12H644v-5.4h9.23Zm0-12H644v-5.4h9.23Zm0-12H644v-5.4h9.23Zm0-12H644v-5.4h9.23Zm0-12H644v-5.4h9.23Zm9.58 60.23H654.1v-5.4h8.76Zm0-12H654.1v-5.4h8.76Zm0-12H654.1v-5.4h8.76Zm0-12H654.1v-5.4h8.76Zm0-12H654.1v-5.4h8.76Zm0-12H654.1v-5.4h8.76ZM672.74 159h-9.05v-5.4h9.05Zm0-12h-9.05v-5.4h9.05Zm0-12h-9.05v-5.4h9.05Zm0-12h-9.05v-5.4h9.05Zm0-12h-9.05v-5.4h9.05Zm0-12h-9.05v-5.4h9.05Zm9.91 60.23h-9.08v-5.4h9.08Zm0-12h-9.08v-5.4h9.08Zm0-12h-9.08v-5.4h9.08Zm0-12h-9.08v-5.4h9.08Zm0-12h-9.08v-5.4h9.08Zm0-12h-9.08V93.8h9.08Z"/>
      <path class="cls-1" d="M449.07 108.48a5.39 5.39 0 1 0 5.52 5.39 5.61 5.61 0 0 0-5.52-5.39m0 8.39a3 3 0 1 1 2.94-3 3 3 0 0 1-2.94 3"/>
      <rect class="cls-1" x="441.19" y="142.91" width="7.4" height="23.9"/>
      <rect class="cls-1" x="412.66" y="151.05" width="17.2" height="15.76"/>
      <polygon class="cls-1" points="439.88 166.81 439.88 142.91 403.25 142.91 403.25 166.81 411.14 166.81 411.14 149.66 431.61 149.66 431.61 166.81 439.88 166.81"/>
      <path class="cls-1" d="M448.59 134.16H394.32v4.23a3.39 3.39 0 0 0 3.39 3.39h0a3.39 3.39 0 0 0 3.39-3.39h0a3.39 3.39 0 0 0 3.39 3.39h0a3.39 3.39 0 0 0 3.39-3.39h0a3.39 3.39 0 0 0 3.39 3.39h0a3.39 3.39 0 0 0 3.39-3.39h0a3.39 3.39 0 0 0 3.39 3.39h0a3.39 3.39 0 0 0 3.39-3.39h0a3.39 3.39 0 0 0 3.39 3.39h0a3.39 3.39 0 0 0 3.39-3.39h0a3.39 3.39 0 0 0 3.39 3.39h0a3.39 3.39 0 0 0 3.39-3.39h0a3.39 3.39 0 0 0 3.39 3.39h0a3.39 3.39 0 0 0 3.39-3.39h0a3.39 3.39 0 0 0 3.39 3.39h0a3.39 3.39 0 0 0 3.39-3.39h0Z"/>
      <rect class="cls-1" x="394.32" y="142.91" width="7.4" height="23.9"/>
      <polygon class="cls-1" points="439.7 128.53 439.7 119.61 403.22 119.61 403.22 128.53 394.32 133.53 448.59 133.53 439.7 128.53"/>
      <polygon class="cls-1" points="435.18 119.61 430.61 119.61 430.61 128.44 434.96 133.53 441.79 133.53 435.18 128.52 435.18 119.61"/>
      <path class="cls-1" d="M441.78 134.16h-6.83v4.77a3.36 3.36 0 0 0 0.06-0.54 3.39 3.39 0 0 0 3.39 3.39h0a3.38 3.38 0 0 0 3.37-3.21Z"/>
      <polygon class="cls-1" points="426.13 119.61 421.48 119.61 421.48 133.53 428.29 133.53 426.13 128.59 426.13 119.61"/>
      <path class="cls-1" d="M428.29 134.16h-6.81v4.48a3.38 3.38 0 0 0 6.76-0.24h0a3.42 3.42 0 0 0 0.05Z"/>
      <polygon class="cls-1" points="428.29 133.53 434.96 133.53 430.61 128.44 430.61 119.61 426.13 119.61 426.13 128.59 428.29 133.53"/>
      <path class="cls-1" d="M435 134.16h-6.67v4.74a3.38 3.38 0 0 0 6.68 0Z"/>
      <polygon class="cls-1" points="441.79 133.53 448.59 133.53 439.7 128.53 439.7 119.61 435.18 119.61 435.18 128.52 441.79 133.53"/>
      <path class="cls-1" d="M441.78 138.61v-0.19a3.39 3.39 0 0 0 3.39 3.39h0a3.39 3.39 0 0 0 3.39-3.39h0v-4.26h-6.8Z"/>
      <polygon class="cls-1" points="407.74 119.61 412.3 119.61 412.3 128.44 407.95 133.53 401.13 133.53 407.74 128.52 407.74 119.61"/>
      <path class="cls-1" d="M401.12 134.16h6.83v4.77a3.36 3.36 0 0 1-0.06-0.54 3.39 3.39 0 0 1-3.39 3.39h0a3.38 3.38 0 0 1-3.37-3.21Z"/>
      <polygon class="cls-1" points="416.79 119.61 421.43 119.61 421.43 133.53 414.62 133.53 416.79 128.59 416.79 119.61"/>
      <path class="cls-1" d="M414.62 134.16h6.81v4.48a3.38 3.38 0 0 1-6.76-0.24h0a3.42 3.42 0 0 1-0.05Z"/>
      <polygon class="cls-1" points="414.62 133.53 407.95 133.53 412.3 128.44 412.3 119.61 416.79 119.61 416.79 128.59 414.62 133.53"/>
      <path class="cls-1" d="M407.95 134.16h6.67v4.74a3.38 3.38 0 0 1-6.68 0Z"/>
      <polygon class="cls-1" points="401.13 133.53 394.32 133.53 403.22 128.53 403.22 119.61 407.74 119.61 407.74 128.52 401.13 133.53"/>
      <path class="cls-1" d="M401.12 138.61v-0.19a3.39 3.39 0 0 1-3.39 3.39h0a3.39 3.39 0 0 1-3.39-3.39h0v-4.26h6.8Z"/>
    </g>
  </g>
  <wappalyzerData xmlns="" id="wappalyzerData" display="none"/>
  <script xmlns="" id="wappalyzerEnvDetection" src="chrome-extension://gppongmhjkpfnbhagpmjfkannfbllamg/js/inject.js"/>
</svg>
