<?xml version="1.0" encoding="utf-8"?>
<!-- Generator: Adobe Illustrator 21.1.0, SVG Export Plug-In . SVG Version: 6.00 Build 0)  -->
<svg version="1.1"
	 id="Layer_1"
	 xmlns="http://www.w3.org/2000/svg" xmlns:xlink="http://www.w3.org/1999/xlink" x="0px" y="0px"
	 width="366.334px"
	 height="429.843px" viewBox="0 0 366.334 429.843" enable-background="new 0 0 366.334 429.843"
	 xml:space="preserve">
<g id="XMLID_1088_">
	<path id="XMLID_3931_" fill="#ffffff" d="M359.393,222.246l-166.181,32.367l22.665,40.928l59.37,107.328
		C337.996,364.489,370.349,295.033,359.393,222.246z"/>
	<path id="XMLID_1089_" fill="#ffffff" d="M263.044,87.301c-0.343,3.732-0.844,7.444-1.687,11.105l-4.754,14.411
		c-0.955,2.225-2.105,4.572-3.366,6.867l-58.429,118.007l110.835-21.587l50.644-9.859
		C343.638,153.029,309.472,110.575,263.044,87.301z"/>
</g>
<g id="XMLID_1090_">
	<path id="XMLID_1091_" fill="#ffffff" d="M107.848,119.523c-1.038-1.907-2.068-3.982-3.008-6.09l-5.022-15.027
		c-0.799-3.452-1.314-6.941-1.664-10.445C46.814,114.497,8.94,165.104,1.365,226.738C-10.8,325.729,59.734,416.175,158.59,428.321
		c37.01,4.549,69.765-1.041,102.394-17.542l-80.206-147.083L107.848,119.523z"/>
	<path id="XMLID_1092_" fill="#ffffff" d="M248.379,77.375c0-37.331-30.256-67.594-67.601-67.594
		c-37.33,0-67.601,30.263-67.601,67.594c0,12.328,3.373,23.848,9.128,33.8h-0.083l58.556,118.294l58.578-118.294h-0.09
		C245.05,101.224,248.379,89.704,248.379,77.375z M180.801,111.164c-18.673,0-33.793-15.131-33.793-33.792
		c0-18.665,15.12-33.801,33.793-33.801c18.658,0,33.8,15.135,33.8,33.801C214.601,96.033,199.458,111.164,180.801,111.164z"/>
</g>
<path id="XMLID_1098_" fill="#ffffff" d="M321.085,90.505c-24.949,0-45.249-20.3-45.249-45.249C275.836,20.3,296.135,0,321.085,0
	c24.949,0,45.249,20.3,45.249,45.256C366.334,70.206,346.034,90.505,321.085,90.505z M321.085,19.568
	c-14.165,0-25.681,11.523-25.681,25.688s11.516,25.681,25.681,25.681c14.165,0,25.681-11.516,25.681-25.681
	S335.25,19.568,321.085,19.568z"/>
</svg>
