<?xml version="1.0" encoding="utf-8"?>
<!-- Generator: Adobe Illustrator 21.1.0, SVG Export Plug-In . SVG Version: 6.00 Build 0)  -->
<svg version="1.1" id="Layer_1" xmlns="http://www.w3.org/2000/svg" xmlns:xlink="http://www.w3.org/1999/xlink" x="0px" y="0px"
	 width="63.288px" height="61.064px" viewBox="0 0 63.288 61.064" enable-background="new 0 0 63.288 61.064" xml:space="preserve">
<g>
	<path fill="#666666" d="M32.52,0c-4.729,0-8.563,3.834-8.563,8.563S31.21,26.11,32.52,26.11c1.31,0,8.563-12.818,8.563-17.547
		S37.249,0,32.52,0z M32.52,12.278c-1.91,0-3.458-1.548-3.458-3.458c0-1.91,1.548-3.458,3.458-3.458c1.91,0,3.458,1.548,3.458,3.458
		C35.978,10.73,34.43,12.278,32.52,12.278z"/>
	<rect y="32.266" fill="#666666" width="21.016" height="3.587"/>
	<path fill="#666666" d="M0,61.064h4.755H7.12h6.776h2.29h4.83v-23.81H0V61.064z M7.12,51.184h6.776v8.236H7.12V51.184z"/>
	<path fill="#666666" d="M42.272,61.064h5.058h2.453h6.11h2.868h4.526V44.539H42.272V61.064z M50.087,53.218h5.503v6.202h-5.503
		V53.218z"/>
	<rect x="42.272" y="40.048" fill="#666666" width="21.016" height="3.091"/>
	<path fill="#666666" d="M22.932,61.064h2.997h4.068h4.073h3.291h3.497V46.969H22.932V61.064z M29.68,54.017h4.706v5.404H29.68
		V54.017z"/>
	<rect x="22.932" y="43.139" fill="#666666" width="17.925" height="2.636"/>
	<path fill="#666666" d="M23.469,16.269c0-0.387-0.313-0.7-0.7-0.7H12.423c-0.387,0-0.7,0.313-0.7,0.7v7.298
		c-1.101,0.309-1.916,1.311-1.916,2.509c0,1.442,1.174,2.616,2.616,2.616s2.616-1.174,2.616-2.616c0-1.198-0.815-2.2-1.916-2.509
		v-6.598h9.646C23.156,16.969,23.469,16.656,23.469,16.269z"/>
	<path fill="#666666" d="M32.52,29.293c-0.387,0-0.7,0.313-0.7,0.7v4.807c-1.101,0.309-1.916,1.311-1.916,2.509
		c0,1.442,1.174,2.616,2.616,2.616s2.616-1.173,2.616-2.616c0-1.198-0.815-2.2-1.916-2.509v-4.807
		C33.22,29.606,32.907,29.293,32.52,29.293z"/>
	<path fill="#666666" d="M42.947,16.969h9.133V32.77c-1.101,0.308-1.916,1.31-1.916,2.508c0,1.442,1.174,2.616,2.616,2.616
		s2.616-1.174,2.616-2.616c0-1.198-0.815-2.2-1.916-2.508V16.269c0-0.387-0.313-0.7-0.7-0.7h-9.833c-0.387,0-0.7,0.313-0.7,0.7
		S42.56,16.969,42.947,16.969z"/>
</g>
</svg>
