<svg id="Layer_1" data-name="Layer 1" xmlns="http://www.w3.org/2000/svg" viewBox="0 0 96.77 11.34">
    <defs>
        <style>.cls-1{fill:#fff;}</style>
    </defs>
    <title>logo</title>
    <path class="cls-1"
          d="M59.34,226c-1.9-.49-2.37-.72-2.37-1.44v0c0-.53.49-1,1.41-1a5.15,5.15,0,0,1,2.85,1.08l1.25-1.82a6.35,6.35,0,0,0-4.07-1.39c-2.24,0-3.84,1.32-3.84,3.31v0c0,2.18,1.42,2.79,3.63,3.35,1.83.47,2.21.78,2.21,1.39v0c0,.64-.6,1-1.58,1a5,5,0,0,1-3.28-1.33L54.14,231a7,7,0,0,0,4.65,1.76c2.37,0,4-1.22,4-3.4v0c0-1.91-1.25-2.71-3.48-3.29m16-2.52-1.29-1.89-4.45,4.79v-4.79H67.2v11h2.41v-3.35l1.27-1.32,3.4,4.67h2.9l-4.67-6.32ZM84,226l-2.62-4.4H78.52l4.21,6.65v4.33h2.41v-4.37l4.22-6.6H86.62ZM99.64,226H95.19v-4.34H92.78v11h2.41v-4.41h4.45v4.41h2.41v-11H99.64Zm11.61-4.53a5.67,5.67,0,0,0-5.85,5.67v0a5.83,5.83,0,0,0,11.66,0v0a5.62,5.62,0,0,0-5.81-5.64m3.29,5.7a3.28,3.28,0,0,1-3.29,3.42,3.33,3.33,0,0,1-3.32-3.45v0a3.28,3.28,0,0,1,3.29-3.41,3.33,3.33,0,0,1,3.32,3.45Zm11.29-5.7A5.67,5.67,0,0,0,120,227.1v0a5.83,5.83,0,0,0,11.66,0v0a5.62,5.62,0,0,0-5.81-5.64m3.29,5.7a3.28,3.28,0,0,1-3.29,3.42,3.33,3.33,0,0,1-3.32-3.45v0a3.28,3.28,0,0,1,3.29-3.41,3.33,3.33,0,0,1,3.32,3.45Zm15.56-5.52h-2.91l-4.45,4.79v-4.79H134.9v11h2.41v-3.35l1.27-1.32,3.4,4.67h2.9l-4.67-6.32Zm4.19-.17a2,2,0,1,0,2,2,2.07,2.07,0,0,0-2-2m0,3.09a1.11,1.11,0,1,1,1.08-1.11,1.09,1.09,0,0,1-1.08,1.11"
          transform="translate(-54.14 -221.43)"/>
</svg>