<svg xmlns="http://www.w3.org/2000/svg" viewBox="0 0 797.43 172.06"><defs><style>.cls-1{fill:#c55868;}</style></defs><title>big-city-2</title><g id="Слой_2" data-name="Слой 2"><g id="Layer_1" data-name="Layer 1"><path class="cls-1" d="M82.83,88.56V77.67l-18.48-6-18.48,6V88.56H29.63v78.08h70V88.56ZM64.35,79.9a4.62,4.62,0,1,1-4.62,4.62,4.62,4.62,0,0,1,4.62-4.62h0Zm14.5,86.74H50.78v-19H78.85Zm-34.08-50.5H39.42V102.89h5.35ZM67.49,102.9v13.24H62.14V102.89Zm-16.71,0h5.35v13.24H50.78Zm28.07,13.24H73.5V102.89h5.35Zm11.36,0H84.86V102.89h5.35Zm-45.44,22H39.42V124.93h5.35ZM67.49,124.9v13.24H62.14V124.93Zm-16.71,0h5.35v13.24H50.78Zm28.07,13.24H73.5V124.93h5.35Zm11.36,0H84.86V124.93h5.35Z"/><rect class="cls-1" x="466.01" y="127.82" width="118.93" height="7.87"/><path class="cls-1" d="M584.93,123H565.11v-4.7H547.19v-7.77a112.32,112.32,0,0,0-43.44,0v7.77H485.83V123H466v3.83H584.94Z"/><rect class="cls-1" x="466.01" y="136.92" width="118.93" height="2.17"/><rect class="cls-1" x="468.91" y="143.81" width="15.39" height="22.65"/><rect class="cls-1" x="506.77" y="143.81" width="4.31" height="22.65"/><rect class="cls-1" x="488.09" y="143.81" width="14.88" height="22.65"/><rect class="cls-1" x="453.43" y="127.82" width="11.27" height="38.64"/><rect class="cls-1" x="383.72" y="120.64" width="8.82" height="5.45"/><rect class="cls-1" x="588.68" y="92.37" width="8.27" height="41.14"/><rect class="cls-1" x="616" y="143.53" width="8.35" height="22.93"/><rect class="cls-1" x="606.48" y="143.53" width="8.35" height="22.93"/><rect class="cls-1" x="606.48" y="135.03" width="18.01" height="7.19"/><rect class="cls-1" x="390.04" y="126.74" width="2.51" height="39.72"/><polygon class="cls-1" points="638.43 166.46 638.43 122.53 625.58 122.53 605.11 122.53 600.98 122.53 600.98 136.92 586.39 136.92 586.39 166.46 605.11 166.46 605.11 136.92 605.11 133.63 625.58 133.63 625.58 166.46 638.43 166.46"/><rect class="cls-1" x="539.59" y="143.81" width="4.31" height="22.65"/><rect class="cls-1" x="566.67" y="143.81" width="15.7" height="22.65"/><rect class="cls-1" x="548.21" y="143.81" width="14.77" height="22.65"/><polygon class="cls-1" points="535.44 166.46 535.44 143.81 515.25 143.81 515.25 166.46 517.41 166.46 517.41 145.33 533.29 145.33 533.29 166.46 535.44 166.46"/><rect class="cls-1" x="600.76" y="112.88" width="31.25" height="8.74"/><polygon class="cls-1" points="584.94 166.46 584.94 142.57 584.94 141.49 584.94 140.4 466.01 140.4 466.01 141.49 466.01 142.57 466.01 166.46 467.59 166.46 467.64 142.57 485.29 142.57 485.29 166.46 486.92 166.46 486.92 142.57 504.02 142.57 504.02 166.46 505.65 166.46 505.65 142.57 512.44 142.57 512.44 166.46 514.07 166.46 514.07 142.57 536.88 142.57 536.88 166.46 538.51 166.46 538.51 142.57 545.29 142.57 545.29 166.46 546.92 166.46 546.92 142.57 564.03 142.57 564.03 166.46 565.66 166.46 565.66 142.57 583.31 142.57 583.31 166.46 584.94 166.46"/><path class="cls-1" d="M586.38,90.08v45.61h13.06V90.08Zm11.22,44.08H588V91.72h9.58Z"/><rect class="cls-1" x="518.46" y="146.48" width="13.64" height="19.98"/><rect class="cls-1" x="386.88" y="126.74" width="2.51" height="39.72"/><rect class="cls-1" x="354.38" y="120.64" width="8.82" height="5.45"/><rect class="cls-1" x="354.38" y="126.74" width="2.51" height="39.72"/><rect class="cls-1" x="357.54" y="126.74" width="2.51" height="39.72"/><rect class="cls-1" x="349.37" y="110.64" width="48.18" height="2.87"/><rect class="cls-1" x="353.07" y="114.22" width="40.78" height="2.73"/><rect class="cls-1" x="354.38" y="117.6" width="38.17" height="2.39"/><path class="cls-1" d="M373.46,94a16.63,16.63,0,0,0-16.63,16.63h33.26A16.63,16.63,0,0,0,373.46,94Z"/><rect class="cls-1" y="167.49" width="796.78" height="4.57"/><rect class="cls-1" x="361.28" y="126.8" width="24.54" height="39.66"/><rect class="cls-1" x="364.76" y="120.64" width="17.24" height="12.55"/><polygon class="cls-1" points="66.28 151.96 66.28 166.63 65.34 166.63 65.34 151.96 54.99 151.96 54.99 166.63 76.64 166.63 76.64 151.96 66.28 151.96"/><rect class="cls-1" x="101.3" y="108.75" width="17.83" height="57.8"/><rect class="cls-1" x="321.06" y="136.96" width="29.98" height="29.81"/><rect class="cls-1" x="217.22" y="7.82" width="11.61" height="158.54"/><rect class="cls-1" x="229.66" y="7.82" width="11.13" height="158.54"/><rect class="cls-1" x="192.29" y="7.82" width="11.61" height="158.54"/><rect class="cls-1" x="180.34" y="7.82" width="11.13" height="158.54"/><polygon class="cls-1" points="213.79 7.82 204.73 7.82 204.73 166.36 213.79 166.36 216.4 166.36 216.4 7.82 213.79 7.82"/><polygon class="cls-1" points="172.72 0 172.72 166.36 179.52 166.36 179.52 7 241.61 7 241.61 166.36 248.41 166.36 248.41 0 172.72 0"/><path class="cls-1" d="M121.35,77.37v88.79h49.09V77.37Zm44.78,80.35H125.65v-3.43h40.5Zm0-7.17H125.65v-3.43h40.5Zm0-7.17H125.65V140h40.5Zm0-7.17H125.65v-3.43h40.5Zm0-7.17H125.65v-3.43h40.5Zm0-7.17H125.65v-3.43h40.5Zm0-7.17H125.65v-3.44h40.5Zm0-7.17H125.65V104.1h40.5Zm0-7.17H125.65V96.93h40.5Zm0-7.17H125.65V89.76h40.5Zm0-7.17H125.65V82.59h40.5Z"/><rect class="cls-1" x="690.53" y="64.96" width="15.97" height="101.96"/><path class="cls-1" d="M748.27,70.16v96.42h17.66v-5.51a6.92,6.92,0,0,1,13.84,0v5.51h17.66V70.16Zm13.51,77.55h-6.64v-9.18h6.64Zm0-12.31h-6.64v-9.18h6.64Zm0-12.31h-6.64v-9.18h6.64Zm0-12.31h-6.64V101.6h6.64Zm0-12.31h-6.64V89.29h6.64Zm0-12.31h-6.64V77h6.64Zm9.76,61.57H764.9v-9.18h6.64Zm0-12.31H764.9v-9.18h6.64Zm0-12.31H764.9v-9.18h6.64Zm0-12.31H764.9v-9.18h6.64Zm0-12.31H764.9v-9.2h6.64Zm0-12.31H764.9V77h6.64Zm9.93,61.57h-6.64v-9.18h6.64Zm0-12.31h-6.64v-9.18h6.64Zm0-12.31h-6.64V114h6.64Zm0-12.31h-6.64v-9.18h6.64Zm0-12.31h-6.64V89.29h6.64Zm0-12.31h-6.64V77h6.64Zm9.76,61.57h-6.64V138.6h6.64Zm0-12.31h-6.64v-9.18h6.64Zm0-12.31h-6.64V114h6.64Zm0-12.31h-6.64v-9.18h6.64Zm0-12.31h-6.64V89.29h6.64Zm0-12.31h-6.64V77h6.64Z"/><rect class="cls-1" x="1.23" y="155.18" width="27.24" height="10.98"/><rect class="cls-1" x="1.23" y="143.17" width="27.24" height="10.98"/><rect class="cls-1" x="1.23" y="131.16" width="27.24" height="10.98"/><rect class="cls-1" x="1.23" y="119.15" width="27.24" height="10.98"/><rect class="cls-1" x="1.23" y="107.14" width="27.24" height="10.98"/><rect class="cls-1" x="1.23" y="95.14" width="27.24" height="10.98"/><path class="cls-1" d="M302.52,71.4V61.08l-17.84-5.66-17.84,5.66V71.41H251.17v95.06h67.58V71.4ZM265.78,135h-5.16V80.75h5.16Zm18.9-71.78a4.42,4.42,0,0,1,4.46,4.38h0A4.42,4.42,0,0,1,284.68,72h0a4.42,4.42,0,0,1-4.46-4.38h0a4.42,4.42,0,0,1,4.44-4.4h0Zm3,17.56V135h-5.16V80.75Zm-16.12,0h5.16V135h-5.16Zm27.09,85.72H271.56v-18h27.09Zm0-31.5h-5.16V80.75h5.16Zm11,0h-5.16V80.75h5.16Z"/><polygon class="cls-1" points="285.58 152.56 285.58 166.47 284.68 166.47 284.68 152.56 274.69 152.56 274.69 166.47 295.58 166.47 295.58 152.56 285.58 152.56"/><path class="cls-1" d="M709.52,8.47v157.8h37.33V8.47ZM739.11,14h2.26V143.64h-2.26Zm-4.79,0h2.26V143.64h-2.26Zm-4.79,0h2.26V143.64h-2.26Zm-4.79,0H727V143.64h-2.26Zm-4.79,0h2.26V143.64h-2.26Zm-4.79,0h2.26V143.64h-2.26ZM728,166.25h-3v-6.71a3.22,3.22,0,0,1,3-3.18Zm3.54,0h-3v-9.9a3.22,3.22,0,0,1,3,3.18Zm9.86,0h-1V152.5H716.16v13.75h-1V151.54h26.23Z"/><path class="cls-1" d="M674.13,88.39a9.88,9.88,0,0,0-19.68,0h-13V166.6h46.06V88.39Zm-19.62,70.12h-9.23v-5.4h9.23Zm0-12h-9.23v-5.4h9.23Zm0-12h-9.23v-5.4h9.23Zm0-12h-9.23v-5.4h9.23Zm0-12h-9.23v-5.4h9.23Zm0-12h-9.23v-5.4h9.23Zm9.58,60.23h-8.76v-5.4h8.76Zm0-12h-8.76v-5.4h8.76Zm0-12h-8.76v-5.4h8.76Zm0-12h-8.76v-5.4h8.76Zm0-12h-8.76v-5.4h8.76Zm0-12h-8.76v-5.4h8.76ZM674,159h-9.05v-5.4H674Zm0-12h-9.05v-5.4H674Zm0-12h-9.05v-5.4H674Zm0-12h-9.05v-5.4H674Zm0-12h-9.05v-5.4H674Zm0-12h-9.05v-5.4H674Zm9.91,60.23H674.8v-5.4h9.08Zm0-12H674.8v-5.4h9.08Zm0-12H674.8v-5.4h9.08Zm0-12H674.8v-5.4h9.08Zm0-12H674.8v-5.4h9.08Zm0-12H674.8V93.8h9.08Z"/><path class="cls-1" d="M450.3,108.48a5.39,5.39,0,1,0,5.52,5.39,5.61,5.61,0,0,0-5.52-5.39m0,8.39a3,3,0,1,1,2.94-3,3,3,0,0,1-2.94,3"/><rect class="cls-1" x="442.42" y="142.91" width="7.4" height="23.9"/><rect class="cls-1" x="413.89" y="151.05" width="17.2" height="15.76"/><polygon class="cls-1" points="441.11 166.81 441.11 142.91 404.48 142.91 404.48 166.81 412.37 166.81 412.37 149.66 432.84 149.66 432.84 166.81 441.11 166.81"/><path class="cls-1" d="M449.82,134.16H395.55v4.23a3.39,3.39,0,0,0,3.39,3.39h0a3.39,3.39,0,0,0,3.39-3.39h0a3.39,3.39,0,0,0,3.39,3.39h0a3.39,3.39,0,0,0,3.39-3.39h0a3.39,3.39,0,0,0,3.39,3.39h0a3.39,3.39,0,0,0,3.39-3.39h0a3.39,3.39,0,0,0,3.39,3.39h0a3.39,3.39,0,0,0,3.39-3.39h0a3.39,3.39,0,0,0,3.39,3.39h0a3.39,3.39,0,0,0,3.39-3.39h0a3.39,3.39,0,0,0,3.39,3.39h0a3.39,3.39,0,0,0,3.39-3.39h0a3.39,3.39,0,0,0,3.39,3.39h0a3.39,3.39,0,0,0,3.39-3.39h0a3.39,3.39,0,0,0,3.39,3.39h0a3.39,3.39,0,0,0,3.39-3.39h0Z"/><rect class="cls-1" x="395.55" y="142.91" width="7.4" height="23.9"/><polygon class="cls-1" points="440.93 128.53 440.93 119.61 404.45 119.61 404.45 128.53 395.55 133.53 449.82 133.53 440.93 128.53"/><polygon class="cls-1" points="436.41 119.61 431.84 119.61 431.84 128.44 436.19 133.53 443.02 133.53 436.41 128.52 436.41 119.61"/><path class="cls-1" d="M443,134.16h-6.83v4.77a3.36,3.36,0,0,0,.06-.54,3.39,3.39,0,0,0,3.39,3.39h0a3.38,3.38,0,0,0,3.37-3.21Z"/><polygon class="cls-1" points="427.36 119.61 422.71 119.61 422.71 133.53 429.52 133.53 427.36 128.59 427.36 119.61"/><path class="cls-1" d="M429.52,134.16h-6.81v4.48a3.38,3.38,0,0,0,6.76-.24h0a3.42,3.42,0,0,0,.05.51Z"/><polygon class="cls-1" points="429.52 133.53 436.19 133.53 431.84 128.44 431.84 119.61 427.36 119.61 427.36 128.59 429.52 133.53"/><path class="cls-1" d="M436.19,134.16h-6.67v4.74a3.38,3.38,0,0,0,6.68,0Z"/><polygon class="cls-1" points="443.02 133.53 449.82 133.53 440.93 128.53 440.93 119.61 436.41 119.61 436.41 128.52 443.02 133.53"/><path class="cls-1" d="M443,138.61v-.19a3.39,3.39,0,0,0,3.39,3.39h0a3.39,3.39,0,0,0,3.39-3.39h0v-4.26H443Z"/><polygon class="cls-1" points="408.97 119.61 413.53 119.61 413.53 128.44 409.18 133.53 402.36 133.53 408.97 128.52 408.97 119.61"/><path class="cls-1" d="M402.35,134.16h6.83v4.77a3.36,3.36,0,0,1-.06-.54,3.39,3.39,0,0,1-3.39,3.39h0a3.38,3.38,0,0,1-3.37-3.21Z"/><polygon class="cls-1" points="418.02 119.61 422.66 119.61 422.66 133.53 415.85 133.53 418.02 128.59 418.02 119.61"/><path class="cls-1" d="M415.85,134.16h6.81v4.48a3.38,3.38,0,0,1-6.76-.24h0a3.42,3.42,0,0,1-.05.51Z"/><polygon class="cls-1" points="415.85 133.53 409.18 133.53 413.53 128.44 413.53 119.61 418.02 119.61 418.02 128.59 415.85 133.53"/><path class="cls-1" d="M409.18,134.16h6.67v4.74a3.38,3.38,0,0,1-6.68,0Z"/><polygon class="cls-1" points="402.36 133.53 395.55 133.53 404.45 128.53 404.45 119.61 408.97 119.61 408.97 128.52 402.36 133.53"/><path class="cls-1" d="M402.35,138.61v-.19a3.39,3.39,0,0,1-3.39,3.39h0a3.39,3.39,0,0,1-3.39-3.39h0v-4.26h6.8Z"/></g></g></svg>