<svg id="Layer_1" data-name="Layer 1" xmlns="http://www.w3.org/2000/svg" viewBox="0 0 796.78 172.25"><defs><style>.cls-1{fill:#fff;}</style></defs><title>city</title><path class="cls-1" d="M-1898.2,651.22V640.33l-18.48-6-18.48,6v10.89h-16.24V729.3h70V651.22Zm-18.48-8.66a4.62,4.62,0,0,1,4.62,4.62,4.62,4.62,0,0,1-4.62,4.62,4.62,4.62,0,0,1-4.62-4.62A4.62,4.62,0,0,1-1916.69,642.55Zm14.5,86.74h-28.07v-19h28.07Zm-34.08-50.5h-5.35V665.55h5.35Zm22.72-13.24v13.24h-5.35V665.55Zm-16.71,0h5.35v13.24h-5.35Zm28.07,13.24h-5.35V665.55h5.35Zm11.36,0h-5.35V665.55h5.35Zm-45.44,22h-5.35V687.59h5.35Zm22.72-13.24v13.24h-5.35V687.59Zm-16.71,0h5.35v13.24h-5.35Zm28.07,13.24h-5.35V687.59h5.35Zm11.36,0h-5.35V687.59h5.35Z" transform="translate(2137.65 -562.93)"/><rect class="cls-1" x="621.36" y="127.73" width="118.93" height="7.87"/><path class="cls-1" d="M-1397.37,685.82h-19.82v-4.7h-17.92v-7.77a125.81,125.81,0,0,0-21.72-2.12,125.83,125.83,0,0,0-21.72,2.12v7.77h-17.92v4.7h-19.82v3.83h118.93Z" transform="translate(2137.65 -562.93)"/><rect class="cls-1" x="621.36" y="136.83" width="118.93" height="2.17"/><rect class="cls-1" x="624.26" y="143.72" width="15.39" height="22.65"/><rect class="cls-1" x="662.12" y="143.72" width="4.31" height="22.65"/><rect class="cls-1" x="643.44" y="143.72" width="14.88" height="22.65"/><rect class="cls-1" x="608.78" y="127.73" width="11.27" height="38.64"/><rect class="cls-1" x="539.07" y="120.55" width="8.82" height="5.45"/><rect class="cls-1" x="744.03" y="92.28" width="8.27" height="41.14"/><rect class="cls-1" x="771.35" y="143.44" width="8.35" height="22.93"/><rect class="cls-1" x="761.83" y="143.44" width="8.35" height="22.93"/><rect class="cls-1" x="761.83" y="134.94" width="18.01" height="7.19"/><rect class="cls-1" x="545.39" y="126.65" width="2.51" height="39.72"/><polygon class="cls-1" points="793.78 166.37 793.78 122.44 780.93 122.44 760.46 122.44 756.33 122.44 756.33 136.83 741.74 136.83 741.74 166.37 760.46 166.37 760.46 136.83 760.46 133.54 780.93 133.54 780.93 166.37 793.78 166.37"/><rect class="cls-1" x="694.94" y="143.72" width="4.31" height="22.65"/><rect class="cls-1" x="722.02" y="143.72" width="15.7" height="22.65"/><rect class="cls-1" x="703.56" y="143.72" width="14.77" height="22.65"/><polygon class="cls-1" points="690.79 166.37 690.79 143.72 670.6 143.72 670.6 166.37 672.76 166.37 672.76 145.24 688.64 145.24 688.64 166.37 690.79 166.37"/><rect class="cls-1" x="756.11" y="112.79" width="31.25" height="8.74"/><polygon class="cls-1" points="740.29 166.37 740.29 142.48 740.29 141.4 740.29 140.31 621.36 140.31 621.36 141.4 621.36 142.48 621.36 166.37 622.94 166.37 622.99 142.48 640.64 142.48 640.64 166.37 642.27 166.37 642.27 142.48 659.37 142.48 659.37 166.37 661 166.37 661 142.48 667.79 142.48 667.79 166.37 669.42 166.37 669.42 142.48 692.23 142.48 692.23 166.37 693.86 166.37 693.86 142.48 700.64 142.48 700.64 166.37 702.27 166.37 702.27 142.48 719.38 142.48 719.38 166.37 721.01 166.37 721.01 142.48 738.66 142.48 738.66 166.37 740.29 166.37"/><path class="cls-1" d="M-1395.92,652.92v45.61h13.06V652.92ZM-1384.7,697h-9.58V654.56h9.58Z" transform="translate(2137.65 -562.93)"/><rect class="cls-1" x="673.81" y="146.39" width="13.64" height="19.98"/><rect class="cls-1" x="542.23" y="126.65" width="2.51" height="39.72"/><rect class="cls-1" x="509.73" y="120.55" width="8.82" height="5.45"/><rect class="cls-1" x="509.73" y="126.65" width="2.51" height="39.72"/><rect class="cls-1" x="512.89" y="126.65" width="2.51" height="39.72"/><rect class="cls-1" x="504.72" y="110.55" width="48.18" height="2.87"/><rect class="cls-1" x="508.42" y="114.13" width="40.78" height="2.73"/><rect class="cls-1" x="509.73" y="117.51" width="38.17" height="2.39"/><path class="cls-1" d="M-1608.84,656.86a16.63,16.63,0,0,0-16.63,16.63h33.26A16.63,16.63,0,0,0-1608.84,656.86Z" transform="translate(2137.65 -562.93)"/><rect class="cls-1" y="167.68" width="796.78" height="4.57"/><rect class="cls-1" x="516.63" y="126.71" width="24.54" height="39.66"/><rect class="cls-1" x="520.11" y="120.55" width="17.24" height="12.55"/><polygon class="cls-1" points="221.9 151.69 221.9 166.36 220.96 166.36 220.96 151.69 210.61 151.69 210.61 166.36 232.26 166.36 232.26 151.69 221.9 151.69"/><rect class="cls-1" x="258.65" y="108.56" width="17.83" height="57.8"/><rect class="cls-1" x="477.55" y="136.55" width="29.98" height="29.81"/><rect class="cls-1" x="374.35" y="7.82" width="11.61" height="158.54"/><rect class="cls-1" x="386.79" y="7.82" width="11.13" height="158.54"/><rect class="cls-1" x="349.42" y="7.82" width="11.61" height="158.54"/><rect class="cls-1" x="337.47" y="7.82" width="11.13" height="158.54"/><polygon class="cls-1" points="370.92 7.82 361.86 7.82 361.86 166.36 370.92 166.36 373.53 166.36 373.53 7.82 370.92 7.82"/><polygon class="cls-1" points="329.85 0 329.85 166.36 336.65 166.36 336.65 7 398.74 7 398.74 166.36 405.54 166.36 405.54 0 329.85 0"/><path class="cls-1" d="M-1858.8,640.51V729.3h49.09V640.51Zm44.78,80.35h-40.48v-3.43H-1814Zm0-7.17h-40.48v-3.43H-1814Zm0-7.17h-40.48v-3.43H-1814Zm0-7.17h-40.48v-3.43H-1814Zm0-7.17h-40.48v-3.43H-1814Zm0-7.17h-40.48v-3.43H-1814Zm0-7.17h-40.48V674.4H-1814Zm0-7.17h-40.48v-3.43H-1814Zm0-7.17h-40.48v-3.43H-1814Zm0-7.17h-40.48v-3.43H-1814Zm0-7.17h-40.48v-3.43H-1814Z" transform="translate(2137.65 -562.93)"/><rect class="cls-1" x="48.01" y="64.44" width="15.97" height="101.96"/><path class="cls-1" d="M-2031.56,632.87v96.42h17.66v-5.51A6.88,6.88,0,0,1-2007,717a6.88,6.88,0,0,1,6.94,6.81v5.51h17.66V632.87Zm13.51,77.55h-6.64v-9.18h6.64Zm0-12.31h-6.64v-9.18h6.64Zm0-12.31h-6.64v-9.18h6.64Zm0-12.31h-6.64v-9.18h6.64Zm0-12.31h-6.64V652h6.64Zm0-12.31h-6.64v-9.18h6.64Zm9.76,61.57h-6.64v-9.18h6.64Zm0-12.31h-6.64v-9.18h6.64Zm0-12.31h-6.64v-9.18h6.64Zm0-12.31h-6.64v-9.18h6.64Zm0-12.31h-6.64V652h6.64Zm0-12.31h-6.64v-9.18h6.64Zm9.93,61.57H-2005v-9.18h6.64Zm0-12.31H-2005v-9.18h6.64Zm0-12.31H-2005v-9.18h6.64Zm0-12.31H-2005v-9.18h6.64Zm0-12.31H-2005V652h6.64Zm0-12.31H-2005v-9.18h6.64Zm9.76,61.57h-6.64v-9.18h6.64Zm0-12.31h-6.64v-9.18h6.64Zm0-12.31h-6.64v-9.18h6.64Zm0-12.31h-6.64v-9.18h6.64Zm0-12.31h-6.64V652h6.64Zm0-12.31h-6.64v-9.18h6.64Z" transform="translate(2137.65 -562.93)"/><rect class="cls-1" x="157.23" y="155.37" width="27.24" height="10.98"/><rect class="cls-1" x="157.23" y="143.36" width="27.24" height="10.98"/><rect class="cls-1" x="157.23" y="131.35" width="27.24" height="10.98"/><rect class="cls-1" x="157.23" y="119.34" width="27.24" height="10.98"/><rect class="cls-1" x="157.23" y="107.33" width="27.24" height="10.98"/><rect class="cls-1" x="157.23" y="95.33" width="27.24" height="10.98"/><path class="cls-1" d="M-1678.46,634.23V623.91l-17.84-5.66-17.84,5.66v10.33h-15.67V729.3h67.58V634.23Zm-36.74,63.57h-5.16V643.58h5.16Zm18.9-71.78a4.42,4.42,0,0,1,4.46,4.38,4.42,4.42,0,0,1-4.46,4.38,4.42,4.42,0,0,1-4.46-4.38A4.42,4.42,0,0,1-1696.3,626Zm3,17.56V697.8h-5.16V643.58Zm-16.12,0h5.16V697.8h-5.16Zm27.09,85.72h-27.09v-18h27.09Zm0-31.5h-5.16V643.58h5.16Zm11,0h-5.16V643.58h5.16Z" transform="translate(2137.65 -562.93)"/><polygon class="cls-1" points="442.25 152.45 442.25 166.36 441.35 166.36 441.35 152.45 431.36 152.45 431.36 166.36 452.25 166.36 452.25 152.45 442.25 152.45"/><path class="cls-1" d="M-2071.33,571.48v157.8H-2034V571.48Zm29.59,5.51h2.26V706.65h-2.26Zm-4.79,0h2.26V706.65h-2.26Zm-4.79,0h2.26V706.65h-2.26Zm-4.79,0h2.26V706.65h-2.26Zm-4.79,0h2.26V706.65h-2.26Zm-4.79,0h2.26V706.65h-2.26Zm12.83,152.27h-3v-6.71a3.22,3.22,0,0,1,3-3.18Zm3.54,0h-3v-9.9a3.22,3.22,0,0,1,3,3.18Zm9.86,0h-1V715.51h-24.23v13.75h-1V714.55h26.23Z" transform="translate(2137.65 -562.93)"/><path class="cls-1" d="M-2105,651.08a9.79,9.79,0,0,0-9.84-9,9.79,9.79,0,0,0-9.84,9h-13v78.21h46.06V651.08Zm-19.62,70.12h-9.23v-5.4h9.23Zm0-12h-9.23v-5.4h9.23Zm0-12h-9.23v-5.4h9.23Zm0-12h-9.23v-5.4h9.23Zm0-12h-9.23v-5.4h9.23Zm0-12h-9.23v-5.4h9.23Zm9.58,60.23h-8.76v-5.4h8.76Zm0-12h-8.76v-5.4h8.76Zm0-12h-8.76v-5.4h8.76Zm0-12h-8.76v-5.4h8.76Zm0-12h-8.76v-5.4h8.76Zm0-12h-8.76v-5.4h8.76Zm9.88,60.23h-9.05v-5.4h9.05Zm0-12h-9.05v-5.4h9.05Zm0-12h-9.05v-5.4h9.05Zm0-12h-9.05v-5.4h9.05Zm0-12h-9.05v-5.4h9.05Zm0-12h-9.05v-5.4h9.05Zm9.91,60.23h-9.08v-5.4h9.08Zm0-12h-9.08v-5.4h9.08Zm0-12h-9.08v-5.4h9.08Zm0-12h-9.08v-5.4h9.08Zm0-12h-9.08v-5.4h9.08Zm0-12h-9.08v-5.4h9.08Z" transform="translate(2137.65 -562.93)"/><path class="cls-1" d="M-1532,671.32a5.61,5.61,0,0,0-5.52,5.39,5.6,5.6,0,0,0,5.52,5.39,5.6,5.6,0,0,0,5.52-5.39,5.61,5.61,0,0,0-5.52-5.39m0,8.39a3,3,0,0,1-2.94-3,3,3,0,0,1,2.94-3,3,3,0,0,1,2.94,3,3,3,0,0,1-2.94,3" transform="translate(2137.65 -562.93)"/><rect class="cls-1" x="597.77" y="142.82" width="7.4" height="23.9"/><rect class="cls-1" x="569.24" y="150.96" width="17.2" height="15.76"/><polygon class="cls-1" points="596.46 166.72 596.46 142.82 559.83 142.82 559.83 166.72 567.72 166.72 567.72 149.57 588.19 149.57 588.19 166.72 596.46 166.72"/><path class="cls-1" d="M-1532.48,697h-54.27v4.23a3.39,3.39,0,0,0,3.39,3.39,3.39,3.39,0,0,0,3.39-3.39,3.39,3.39,0,0,0,3.39,3.39,3.39,3.39,0,0,0,3.39-3.39,3.39,3.39,0,0,0,3.39,3.39,3.39,3.39,0,0,0,3.39-3.39,3.39,3.39,0,0,0,3.39,3.39,3.39,3.39,0,0,0,3.39-3.39,3.39,3.39,0,0,0,3.39,3.39,3.39,3.39,0,0,0,3.39-3.39,3.39,3.39,0,0,0,3.39,3.39,3.39,3.39,0,0,0,3.39-3.39,3.39,3.39,0,0,0,3.39,3.39,3.39,3.39,0,0,0,3.39-3.39,3.39,3.39,0,0,0,3.39,3.39,3.39,3.39,0,0,0,3.39-3.39Z" transform="translate(2137.65 -562.93)"/><rect class="cls-1" x="550.9" y="142.82" width="7.4" height="23.9"/><polygon class="cls-1" points="596.28 128.44 596.28 119.52 559.8 119.52 559.8 128.44 550.9 133.44 605.17 133.44 596.28 128.44"/><polygon class="cls-1" points="591.76 119.52 587.19 119.52 587.19 128.35 591.54 133.44 598.37 133.44 591.76 128.43 591.76 119.52"/><path class="cls-1" d="M-1539.29,697h-6.83v4.77a3.36,3.36,0,0,0,.06-.54,3.39,3.39,0,0,0,3.39,3.39,3.38,3.38,0,0,0,3.37-3.21Z" transform="translate(2137.65 -562.93)"/><polygon class="cls-1" points="582.71 119.52 578.06 119.52 578.06 133.44 584.87 133.44 582.71 128.5 582.71 119.52"/><path class="cls-1" d="M-1552.78,697h-6.81v4.48a3.38,3.38,0,0,0,3.37,3.15,3.39,3.39,0,0,0,3.39-3.39,3.43,3.43,0,0,0,.05.51Z" transform="translate(2137.65 -562.93)"/><polygon class="cls-1" points="584.87 133.44 591.54 133.44 587.19 128.35 587.19 119.52 582.71 119.52 582.71 128.5 584.87 133.44"/><path class="cls-1" d="M-1546.11,697h-6.67v4.74a3.38,3.38,0,0,0,3.34,2.89,3.39,3.39,0,0,0,3.34-2.85Z" transform="translate(2137.65 -562.93)"/><polygon class="cls-1" points="598.37 133.44 605.17 133.44 596.28 128.44 596.28 119.52 591.76 119.52 591.76 128.43 598.37 133.44"/><path class="cls-1" d="M-1539.29,701.45c0-.06,0-.12,0-.19a3.39,3.39,0,0,0,3.39,3.39,3.39,3.39,0,0,0,3.39-3.39V697h-6.8Z" transform="translate(2137.65 -562.93)"/><polygon class="cls-1" points="564.32 119.52 568.88 119.52 568.88 128.35 564.53 133.44 557.71 133.44 564.32 128.43 564.32 119.52"/><path class="cls-1" d="M-1579.95,697h6.83v4.77a3.36,3.36,0,0,1-.06-.54,3.39,3.39,0,0,1-3.39,3.39,3.38,3.38,0,0,1-3.37-3.21Z" transform="translate(2137.65 -562.93)"/><polygon class="cls-1" points="573.37 119.52 578.01 119.52 578.01 133.44 571.2 133.44 573.37 128.5 573.37 119.52"/><path class="cls-1" d="M-1566.45,697h6.81v4.48a3.38,3.38,0,0,1-3.37,3.15,3.39,3.39,0,0,1-3.39-3.39,3.43,3.43,0,0,1-.05.51Z" transform="translate(2137.65 -562.93)"/><polygon class="cls-1" points="571.2 133.44 564.53 133.44 568.88 128.35 568.88 119.52 573.37 119.52 573.37 128.5 571.2 133.44"/><path class="cls-1" d="M-1573.12,697h6.67v4.74a3.38,3.38,0,0,1-3.34,2.89,3.39,3.39,0,0,1-3.34-2.85Z" transform="translate(2137.65 -562.93)"/><polygon class="cls-1" points="557.71 133.44 550.9 133.44 559.8 128.44 559.8 119.52 564.32 119.52 564.32 128.43 557.71 133.44"/><path class="cls-1" d="M-1579.95,701.45c0-.06,0-.12,0-.19a3.39,3.39,0,0,1-3.39,3.39,3.39,3.39,0,0,1-3.39-3.39V697h6.8Z" transform="translate(2137.65 -562.93)"/></svg>